<?xml version="1.0" standalone="no"?><!DOCTYPE svg PUBLIC "-//W3C//DTD SVG 1.1//EN" "http://www.w3.org/Graphics/SVG/1.1/DTD/svg11.dtd"><svg t="1679894936962" class="icon" viewBox="0 0 1024 1024" version="1.1" xmlns="http://www.w3.org/2000/svg" p-id="3830" xmlns:xlink="http://www.w3.org/1999/xlink" width="200" height="200"><path d="M558.4 734.7c1.4-6 3.1-11.8 5.1-17.5 0.3-1.2 0.6-2.3 1.1-3.5l115.7-288.4-251.7-98.6-141.1 165.9 50 18.1c12.4 4.5 17.8 19 11.4 30.4L208.5 793.2c-5.7 10.3-18.7 14-29 8.3-10.3-5.7-14-18.7-8.3-29l128.2-230.2-50.9-18.4c-3.3-0.4-6.6-1.6-9.4-3.4l-47.9-17.3-46.4 265.6c-2 11.6-13.1 19.4-24.7 17.3s-19.4-13.1-17.3-24.7l50.7-290.6c2.3-13.1 15.8-20.9 28.3-16.4l48.2 17.4 4.8-316.8c-0.1-1.9-0.1-3.8-0.1-5.6C234.7 66.9 301.5 0 384 0c22.9 0 44.7 5.2 64.1 14.4l0.2-0.6 468.8 184.3c61.8 18.3 106.9 75.5 106.9 143.2 0 17.7-3.1 34.7-8.7 50.4-0.3 1.4-0.6 2.7-1.2 4l-149 372.1 91.3 226.9c5.6 14-4.7 29.3-19.8 29.3H483.8c-14.8 0-25.1-14.7-20.1-28.6l94.2-259.5c0.2-0.4 0.3-0.8 0.5-1.2zM842.1 825c-22.4 54.2-75.8 92.3-138.1 92.3-59.9 0-111.5-35.2-135.3-86.1l-54.5 150.1h390.7L842.1 825z m-322-737.1c8.5 18.7 13.2 39.5 13.2 61.5 0 32.4-10.3 62.4-27.8 86.8-0.5 0.8-1.1 1.6-1.8 2.4-3.8 5.1-8 10-12.4 14.6l-33.4 39.3 238.3 93.4 35.1-87.4c0.3-0.7 0.6-1.5 1-2.1 13.1-41.5 43.9-75.1 83.4-92.2L520.1 87.9z m396.8 155.4l-0.2 0.5-13.2-5.2c-9.2-2.6-18.8-3.9-28.8-3.9-58.9 0-106.7 47.8-106.7 106.7 0 43.2 25.7 80.4 62.6 97.2l10.5 4.1c10.6 3.5 21.9 5.4 33.6 5.4 58.9 0 106.7-47.8 106.7-106.7-0.1-44-26.6-81.7-64.5-98.1zM339.6 292c-24.5-7.6-46.3-21.4-63.6-39.5l-2.9 191.2 113.5-133.3-47-18.4z m3.5-44.1l0.1-0.3 10.3 4c9.7 2.9 19.9 4.4 30.5 4.4 29.6 0 56.4-12.1 75.8-31.6l10.5-12.3c12.8-17.6 20.4-39.3 20.4-62.8 0-58.9-47.8-106.7-106.7-106.7-57.7 0-104.7 45.8-106.6 103 0.1 0.9 0.2 1.9 0.1 2.8l-0.1 5.9c2 42.3 28.6 78.1 65.7 93.6z m470.8 229.9L720 441l-76.4 190.4c18.5-8.2 38.9-12.7 60.4-12.7 62.2 0 115.5 38 138 92.1l93.3-232.9c-18.5 8.2-39 12.8-60.6 12.8-21.7 0-42.3-4.6-60.8-12.9z m-75.6-75.5c-0.5-1.1-1-2.2-1.5-3.4l-1 2.4 2.5 1zM704 874.7c58.9 0 106.7-47.8 106.7-106.7S762.9 661.3 704 661.3 597.3 709.1 597.3 768 645.1 874.7 704 874.7z m0-64c-23.6 0-42.7-19.1-42.7-42.7s19.1-42.7 42.7-42.7 42.7 19.1 42.7 42.7-19.1 42.7-42.7 42.7zM874.7 384c-23.6 0-42.7-19.1-42.7-42.7s19.1-42.7 42.7-42.7 42.7 19.1 42.7 42.7-19.2 42.7-42.7 42.7zM384 192c-23.6 0-42.7-19.1-42.7-42.7s19.1-42.7 42.7-42.7 42.7 19.1 42.7 42.7S407.6 192 384 192z" fill="" p-id="3831"></path></svg>